
<svg fill="#000000" height="24px" width="24px" version="1.1" id="Layer_1" xmlns="http://www.w3.org/2000/svg" xmlns:xlink="http://www.w3.org/1999/xlink" 
	 viewBox="0 0 440.13 440.13" xml:space="preserve">
<g>
	<g>
		<path d="M414.884,130.163H379.31v14.336h21.238v194.217h-61.384v-14.408h-14.336v14.408l-10.916,21.827v-36.239h-14.336v79.391
			H440.13V180.662L414.884,130.163z M315.535,389.358l18.084-36.163h72.484l18.084,36.163H315.535z M425.8,360.543L425.8,360.543
			l-10.916-21.827V162.219l10.916,21.827V360.543z"/>
		<path d="M275.83,360.532l-10.911-21.816v-14.408h-14.336v14.408h-61.384v-14.408h-14.336v14.408l-10.916,21.827v-36.239h-14.336
			v79.391h140.554v-79.391H275.83V360.532z M165.571,389.358l18.084-36.163h72.484l18.084,36.163H165.571z"/>
		<path d="M364.974,86.93h0.005l-25.252-50.499h-90.056L224.42,86.93v223.037h140.554V86.93z M264.008,50.772h61.384v194.217
			h-61.384V50.772z M238.756,90.319l10.916-21.827v176.497l-10.916,21.821V90.319z M240.374,295.631l18.084-36.163h72.484
			l18.084,36.163H240.374z M350.643,266.811L350.643,266.811l-10.916-21.827V68.488l10.916,21.827V266.811z"/>
		<path d="M126.218,360.543l-10.916-21.827v-14.408h-14.336v14.408H39.588V144.499h20.89v-14.336H25.252L0,180.662v223.037h140.554
			v-79.396h-14.336V360.543z M14.336,184.046l10.916-21.827v176.497l-10.916,21.827V184.046z M15.954,389.358l18.084-36.163h72.484
			l18.084,36.163H15.954z"/>
		<path d="M215.357,86.93h0.005l-25.252-50.499h-90.056L74.803,86.93v223.037h140.554V86.93z M114.391,50.772h61.389v194.217
			h-61.389V50.772z M89.144,90.319l10.916-21.827v176.497l-10.916,21.827V90.319z M90.762,295.631l18.084-36.163h72.484
			l18.084,36.163H90.762z M201.027,266.811l-10.916-21.827V68.488l10.916,21.827V266.811z"/>
	</g>
</g>
</svg>