
<svg fill="#ffffffff" width="16px" height="16px" viewBox="0 0 24 24" id="delivery-truck-left" data-name="Line Color" xmlns="http://www.w3.org/2000/svg" class="icon line-color"><path id="primary" d="M14.83,17H11V6a1,1,0,0,1,1-1h7" style="fill: none; stroke: rgba(255, 255, 255, 1); stroke-linecap: round; stroke-linejoin: round; stroke-width: 2;"></path><path id="primary-2" data-name="primary" d="M21,13v3a1,1,0,0,1-1,1h-.87" style="fill: none; stroke: rgba(255, 255, 255, 1); stroke-linecap: round; stroke-linejoin: round; stroke-width: 2;"></path><path id="primary-3" data-name="primary" d="M4.89,17H4a1,1,0,0,1-1-1V11.78a1,1,0,0,1,.76-1L5,10.5l.79-2.77a1,1,0,0,1,1-.73H11V17H9.13" style="fill: none; stroke: rgba(255, 255, 255, 1); stroke-linecap: round; stroke-linejoin: round; stroke-width: 2;"></path><path id="secondary" d="M15,17a2,2,0,1,0,2-2A2,2,0,0,0,15,17ZM5,17a2,2,0,1,0,2-2A2,2,0,0,0,5,17ZM15,9h6" style="fill: none; stroke: rgba(255, 255, 255, 1); stroke-linecap: round; stroke-linejoin: round; stroke-width: 2;"></path></svg>